<svg width="120" height="121" viewBox="0 0 120 121" fill="none" xmlns="http://www.w3.org/2000/svg">
<g clip-path="url(#clip0)">
<path d="M119.999 40.8595L120 20.8947L96.6297 20.7932L96.6171 25.1746L110.673 25.2359L85.6314 41.0241L85.6329 19.0191C85.6329 19.0172 85.6329 19.0172 85.6329 19.0153C85.6314 18.2413 85.29 17.5248 84.7323 17.132L60.8589 0.303422C60.282 -0.102733 59.5674 -0.100816 58.9935 0.307255L35.2707 17.1339C34.7148 17.5286 34.3734 18.2432 34.3734 19.0172L34.3719 41.0241L9.85896 25.2264L23.3894 25.1708L23.3766 20.7893L3.10416 20.8736L2.70833 20.6188L2.59135 20.8775L0.00640917 20.889L0.0048075 40.8558H3.66987L3.67146 26.2188L34.3701 45.9998L34.3686 73.3443L32.7612 74.3578L34.3686 77.9977V77.9995L32.7612 74.3578L3.66507 92.7018L3.66666 78.4593H0.00160168L0 98.4262L23.3702 98.5277L23.383 94.1461L9.32853 94.0848L34.3671 78.2984L34.3653 100.302C34.3653 101.078 34.7082 101.794 35.2677 102.189L59.1411 119.017C59.4279 119.221 59.7501 119.322 60.072 119.322C60.3957 119.322 60.7197 119.219 61.0065 119.016L84.7275 102.191C85.2837 101.796 85.6251 101.082 85.6251 100.308L85.6266 79.0379L110.804 95.2651L96.609 95.3245L96.6219 99.7058L119.992 99.6083L119.994 79.6415H116.329L116.327 93.8472L87.2469 75.1069L85.6251 74.0608L85.6266 45.9804L116.332 26.6211L116.33 40.8632H119.999V40.8595ZM59.9295 4.73473L80.2002 19.0249L60.0753 33.2977L39.8028 19.0095L59.9295 4.73473ZM38.0337 75.9862L48.4809 69.3994L44.6586 66.8573L38.0352 71.0336L38.0385 22.8488L58.2483 37.0931L58.2435 113.295L38.0337 99.0488V75.9862ZM81.9648 76.6718L81.963 99.0565L61.9053 113.284L61.9101 37.0909L81.9678 22.8661L81.9648 71.6965L74.3316 66.7766L70.7886 69.4705L81.9648 76.6718Z" fill="#AAAAAA"/>
</g>
<defs>
<clipPath id="clip0">
<rect width="120" height="121" fill="white"/>
</clipPath>
</defs>
</svg>
