<svg width="20" height="24" viewBox="0 0 20 24" fill="none" xmlns="http://www.w3.org/2000/svg">
<path fill-rule="evenodd" clip-rule="evenodd" d="M0.989624 9.1163C0.989624 4.0848 5.06305 0 10.0806 0C15.0981 0 19.1715 4.0848 19.1715 9.1163C19.1715 12.7874 16.5581 16.0916 14.3722 18.8531L10.5033 23.7875C10.2564 24.0381 9.90176 24.0993 9.66321 23.7941C9.24998 23.2667 8.83497 22.7227 8.41732 22.1752C7.55268 21.0419 6.6767 19.8936 5.7817 18.8465L5.78117 18.8459C3.59838 16.0844 0.989624 12.7841 0.989624 9.1163ZM18.1084 9.1163C18.1084 4.66637 14.5181 1.06602 10.0806 1.06602C5.64299 1.06602 2.05268 4.66637 2.05268 9.1163C2.05268 12.4164 4.53447 15.5565 6.61076 18.1836L6.61157 18.1846C7.3401 19.1646 8.11776 20.1381 8.89159 21.1069C9.29136 21.6073 9.69011 22.1065 10.0806 22.6046L13.5436 18.1924L13.5452 18.1904C15.6231 15.5623 18.1084 12.419 18.1084 9.1163Z" fill="black"/>
<path fill-rule="evenodd" clip-rule="evenodd" d="M6.18433 8.88907C6.18433 6.43807 8.12571 4.44434 10.513 4.44434C12.9003 4.44434 14.8423 6.43807 14.8423 8.88907C14.8423 11.3401 12.9003 13.3332 10.513 13.3332C8.12343 13.3332 6.18433 11.3424 6.18433 8.88907ZM13.8309 8.88907C13.8309 7.00454 12.3486 5.48267 10.513 5.48267C8.67803 5.48267 7.19569 7.00513 7.19569 8.88907C7.19569 10.7707 8.68031 12.2949 10.513 12.2949C12.348 12.2949 13.8309 10.7736 13.8309 8.88907Z" fill="black"/>
</svg>
