<svg width="50" height="50" viewBox="0 0 50 50" fill="none" xmlns="http://www.w3.org/2000/svg">
<g clip-path="url(#clip0)">
<path d="M35.0414 35.775C35.0746 35.7726 35.108 35.7726 35.1412 35.775H38.4592C38.5245 35.8461 38.5679 35.9347 38.584 36.03C39.1761 37.8033 39.7715 39.5767 40.3702 41.35L42.2712 47C42.2712 47.085 42.3311 47.165 42.376 47.28C42.4209 47.17 42.4558 47.095 42.4808 47.02L44.5764 40.835L46.208 36C46.2379 35.915 46.2728 35.83 46.3078 35.74H49.6258H49.7405C49.7554 35.7646 49.7656 35.7917 49.7705 35.82C49.7705 40.43 49.7705 45.04 49.7705 49.65C49.7739 49.6799 49.7739 49.7101 49.7705 49.74C49.7705 49.74 49.7356 49.74 49.7206 49.74H47.5801H47.4753C47.4753 49.695 47.4753 49.655 47.4753 49.62C47.4753 49.585 47.4753 49.455 47.4753 49.37C47.4753 45.8667 47.4753 42.3667 47.4753 38.87C47.489 38.7604 47.4771 38.6491 47.4404 38.545C47.2757 38.945 47.166 39.325 47.0362 39.69C46.9065 40.055 46.7818 40.44 46.652 40.815C46.5223 41.19 46.4026 41.55 46.2728 41.915C46.1431 42.28 46.0184 42.66 45.8886 43.035L45.5044 44.16C45.3747 44.535 45.25 44.91 45.1202 45.28C44.9905 45.65 44.8658 46.03 44.7361 46.405C44.6063 46.78 44.4866 47.135 44.3569 47.505C44.2271 47.875 44.1024 48.25 43.9727 48.625C43.8429 49 43.7182 49.375 43.5935 49.74C43.3989 49.78 41.7274 49.795 41.2135 49.74C41.1336 49.685 41.1236 49.585 41.0987 49.505L39.8314 45.9L37.4464 38.9C37.4464 38.825 37.3915 38.75 37.3566 38.67C37.2917 38.67 37.3166 38.745 37.3166 38.775C37.3166 38.805 37.3166 38.94 37.3166 39.025V49.47C37.3166 49.57 37.3166 49.665 37.3166 49.77C37.2833 49.785 37.248 49.7951 37.2119 49.8H35.1063H35.0464C35.0319 49.7575 35.0202 49.7141 35.0115 49.67C35.0115 49.605 35.0115 49.54 35.0115 49.475V36.095C34.9966 35.9874 35.0068 35.8779 35.0414 35.775Z" fill="black"/>
<path d="M14.0904 42.66C14.1111 43.9046 13.8429 45.137 13.3071 46.26C12.8884 47.1253 12.2846 47.8875 11.5387 48.4924C10.7927 49.0974 9.92292 49.5301 8.99112 49.76C8.11254 49.9896 7.20021 50.0607 6.29678 49.97C5.43092 49.8968 4.58558 49.6664 3.80202 49.29C3.00808 48.9021 2.29999 48.3583 1.71974 47.6909C1.13948 47.0236 0.698896 46.2462 0.424111 45.405C0.105902 44.471 -0.0378668 43.4862 1.23587e-06 42.5C0.0177821 41.6226 0.186578 40.7549 0.498953 39.935C0.886724 38.8351 1.56061 37.8588 2.45094 37.1073C3.34128 36.3557 4.41576 35.8561 5.56332 35.66C6.89372 35.3813 8.27511 35.4765 9.55493 35.935C10.5094 36.2639 11.375 36.8097 12.0839 37.5297C12.7928 38.2496 13.3259 39.1242 13.6414 40.085C13.872 40.7391 14.0097 41.4225 14.0505 42.115C14.0705 42.32 14.0854 42.545 14.0904 42.66ZM11.6855 42.61C11.6813 42.2573 11.6446 41.9058 11.5757 41.56C11.4739 40.9394 11.2591 40.3428 10.942 39.8C10.6641 39.3075 10.2897 38.8765 9.84122 38.5328C9.39277 38.189 8.87957 37.9398 8.3325 37.8C7.51461 37.5861 6.65563 37.5861 5.83774 37.8C4.87649 38.0345 4.02848 38.601 3.44277 39.4C3.04509 39.9219 2.75659 40.5188 2.59455 41.155C2.41527 41.8753 2.35959 42.621 2.4299 43.36C2.47853 43.9932 2.63373 44.6137 2.88893 45.195C3.12022 45.7528 3.46645 46.2554 3.90496 46.6698C4.34348 47.0843 4.86438 47.4012 5.43359 47.6C6.11914 47.8441 6.85167 47.9262 7.5741 47.84C8.37753 47.7691 9.14547 47.4758 9.79218 46.9928C10.4389 46.5098 10.9389 45.8562 11.2364 45.105C11.553 44.3123 11.7058 43.4635 11.6855 42.61Z" fill="black"/>
<path d="M50 7.15C50.0215 8.31217 49.7917 9.46523 49.3264 10.53C48.9105 11.4839 48.2734 12.3244 47.4681 12.9819C46.6627 13.6393 45.7124 14.0947 44.6961 14.31C43.3112 14.6512 41.8573 14.5835 40.5099 14.115C39.5309 13.7938 38.6416 13.2448 37.9149 12.5131C37.1881 11.7814 36.6446 10.8876 36.3287 9.905C36.0252 8.99715 35.8883 8.04174 35.9246 7.085C35.935 6.22519 36.0832 5.37266 36.3636 4.56C36.7403 3.43796 37.4101 2.43756 38.3034 1.66287C39.1967 0.888177 40.2808 0.367499 41.443 0.154998C42.7724 -0.122845 44.1522 -0.0329683 45.4346 0.414998C46.3952 0.738934 47.2673 1.28261 47.9817 2.00294C48.6962 2.72327 49.2335 3.60046 49.5509 4.565C49.7832 5.20854 49.9226 5.88199 49.9651 6.565C49.98 6.8 49.995 7.03 50 7.15ZM47.605 7.27C47.605 7 47.5701 6.725 47.5402 6.455C47.4762 5.79785 47.2901 5.1585 46.9913 4.57C46.7364 4.04148 46.3752 3.57146 45.9305 3.18944C45.4857 2.80741 44.9669 2.52162 44.4067 2.35C43.7029 2.13321 42.9597 2.07683 42.2313 2.185C41.1398 2.31853 40.143 2.87266 39.4521 3.73C38.9475 4.35311 38.6046 5.09176 38.4542 5.88C38.3079 6.55805 38.2709 7.2552 38.3445 7.945C38.4143 8.62964 38.6088 9.29565 38.9183 9.91C39.3883 10.9057 40.2253 11.68 41.2534 12.07C41.9482 12.3337 42.6948 12.4313 43.4338 12.355C44.0921 12.3035 44.7309 12.1072 45.3049 11.78C46.1749 11.2607 46.838 10.4548 47.1809 9.5C47.4558 8.7885 47.5995 8.03292 47.605 7.27Z" fill="black"/>
<path d="M8.26265 7.99999L8.50215 8.10999C9.16198 8.38793 9.69049 8.90861 9.97905 9.56499C10.1299 9.89421 10.2421 10.2399 10.3133 10.595C10.5595 11.735 10.8023 12.8717 11.0418 14.005C11.0418 14.095 11.0767 14.18 11.0917 14.285C11.051 14.2972 11.0092 14.3055 10.967 14.31H8.77158H8.70173C8.70173 14.26 8.65683 14.2 8.64186 14.14C8.44228 13.19 8.24103 12.24 8.03813 11.29C7.98823 11.045 7.91838 10.79 7.85351 10.57C7.83881 10.5148 7.81876 10.4612 7.79364 10.41C7.65358 9.988 7.39592 9.61498 7.05111 9.33501C6.7063 9.05503 6.28873 8.8798 5.84772 8.82999C5.57818 8.79261 5.30653 8.77257 5.03443 8.76999H2.96378C2.87851 8.75394 2.79032 8.76808 2.7143 8.80999C2.68437 9.06499 2.7143 9.30999 2.7143 9.58999V14.295C2.67169 14.3063 2.62834 14.3147 2.58458 14.32H0.444072C0.407547 14.3231 0.370828 14.3231 0.334303 14.32V14.175C0.331803 14.1267 0.331803 14.0783 0.334303 14.03V0.589995C0.334303 0.489995 0.334303 0.394995 0.334303 0.284995C0.404092 0.280755 0.474073 0.280755 0.543862 0.284995H6.18701C6.84563 0.277801 7.50107 0.377421 8.12794 0.579995C8.49559 0.700941 8.84609 0.869 9.17075 1.07999C9.89972 1.55143 10.432 2.27325 10.6676 3.10999C10.892 3.89249 10.892 4.7225 10.6676 5.50499C10.5361 5.9881 10.3047 6.43809 9.98838 6.82573C9.67204 7.21336 9.27787 7.52998 8.83146 7.75499C8.74664 7.805 8.65683 7.84499 8.56701 7.88999L8.26265 7.99999ZM2.7143 6.65999H6.34169C6.60489 6.64964 6.86454 6.59557 7.11007 6.49999C7.41435 6.39142 7.68707 6.20903 7.90386 5.9691C8.12065 5.72916 8.27477 5.43916 8.35246 5.12499C8.41734 4.87724 8.43761 4.61988 8.41234 4.36499C8.39374 3.9756 8.26199 3.60015 8.03329 3.28479C7.80458 2.96944 7.48889 2.72794 7.12504 2.58999C6.83497 2.47143 6.52521 2.40866 6.21196 2.40499H2.99372C2.90781 2.38942 2.81921 2.39986 2.73925 2.43499C2.70433 2.67999 2.68936 4.93499 2.73925 6.46999C2.69934 6.49999 2.70932 6.56999 2.7143 6.65999Z" fill="black"/>
</g>
<defs>
<clipPath id="clip0">
<rect width="50" height="50" fill="white"/>
</clipPath>
</defs>
</svg>
