<svg width="64" height="64" viewBox="0 0 64 64" fill="none" xmlns="http://www.w3.org/2000/svg">
<g clip-path="url(#clip0)">
<path d="M63.8504 33.4477C63.8557 32.6488 63.4571 31.9266 62.7827 31.5151L62.3756 31.2667C63.0655 29.3136 64.4701 22.622 55.4983 14.4698C50.6864 10.0967 43.3661 7.46407 34.888 7.05688C27.2206 6.68555 19.2746 8.14526 13.0761 11.0527C5.33415 14.6841 0.329389 20.6399 0.015735 26.5957C-0.182228 30.3576 1.39548 35.9438 10.0356 41.2004C15.0703 44.2633 20.9998 45.4115 26.631 45.4115C30.358 45.4115 33.9522 44.9086 37.0681 44.125L37.0664 44.7738L33.2854 46.9659C32.185 47.6121 31.3255 49.1256 31.3298 50.412C31.3315 51.1401 31.6169 51.7241 32.1105 52.0126C32.3282 52.1397 32.5732 52.203 32.8338 52.203C33.1681 52.203 33.5254 52.0988 33.8759 51.8922L37.1872 49.9724C37.2781 50.2362 37.4135 50.4803 37.5892 50.6955C36.8959 51.4526 36.422 52.5316 36.4246 53.4859C36.4262 54.2141 36.7116 54.7971 37.2053 55.0866C37.4229 55.2145 37.668 55.2769 37.9286 55.2769C38.2627 55.2769 38.6193 55.1728 38.9706 54.967L41.7198 53.3732L47.5627 56.9338C47.9312 57.1591 48.3383 57.2718 48.7462 57.2718C49.1336 57.2718 49.5217 57.1702 49.8783 56.9654C49.9811 56.9065 50.0763 56.839 50.167 56.7673L62.1057 48.785C63.1872 48.1303 63.8548 46.9326 63.8513 45.6521L63.8136 33.8328C63.8342 33.7065 63.8496 33.5793 63.8504 33.4477ZM50.0797 40.5329C49.8877 40.3383 49.6743 40.1633 49.4369 40.0191L41.3076 35.0663L51.8151 28.7494C52.6454 28.2552 53.6747 28.2603 54.4999 28.7648L61.7843 33.2087C61.888 33.2719 61.9094 33.3659 61.9086 33.4341C61.9086 33.5024 61.8854 33.5955 61.7834 33.6561L50.0797 40.5329ZM11.0322 39.5043C4.85082 35.744 1.71255 31.3162 1.95508 26.7006C2.22932 21.4781 6.80302 16.1703 13.8894 12.8462C25.6463 7.33261 44.6507 7.2609 54.2051 15.9423C61.816 22.8585 61.2066 28.3328 60.6702 30.2253L55.4992 27.0703C54.6337 26.5419 53.6396 26.3344 52.6694 26.4378C50.8878 20.96 44.5076 15.1809 33.9925 14.323C30.3135 14.0225 26.3816 14.3572 22.3067 15.3166C19.1161 16.0678 17.3738 16.9573 15.4413 18.2387L16.5024 19.8929C18.2943 18.7047 19.8197 17.9296 22.7445 17.2407C26.6241 16.3273 30.3554 16.0081 33.8373 16.2923C43.4612 17.0768 49.2493 22.2046 50.8227 27.0498L38.4007 34.5174C38.3527 34.5404 38.3048 34.5609 38.2576 34.5874C37.5274 35.0065 37.0904 35.7663 37.0878 36.6191L37.0732 42.0849C29.6073 44.0687 19.0638 44.3897 11.0322 39.5043ZM33.2949 50.8636C33.0455 51.0096 32.8141 51.0557 32.6907 50.984C32.5698 50.9131 32.4945 50.692 32.4936 50.4069C32.491 49.5353 33.12 48.4282 33.8639 47.992L40.9931 43.8595L41 46.3965L33.2949 50.8636ZM38.3896 53.9393C38.1403 54.0852 37.908 54.1313 37.7854 54.0596C37.6646 53.9888 37.5892 53.7676 37.5883 53.4834C37.5857 52.6119 38.2148 51.5047 38.9587 51.0684L46.0879 46.9352L46.0947 49.4721L38.3896 53.9393ZM43.6558 52.2508L46.9679 50.3309C47.1497 50.2251 47.2627 50.0278 47.2619 49.8145L47.2516 45.9151C47.2508 45.7042 47.1402 45.5096 46.9611 45.4038C46.782 45.2979 46.5609 45.2971 46.3801 45.402L39.2243 49.5507L39.1703 49.5182C39.0623 49.4525 38.9955 49.3322 38.9955 49.2008V48.925L41.8732 47.257C42.0549 47.1512 42.168 46.9539 42.1671 46.7406L42.1569 42.8412C42.156 42.6303 42.0454 42.4357 41.8663 42.3298C41.6872 42.224 41.4662 42.2232 41.2853 42.3281L39.0109 43.6462L39.0298 36.6267C39.0298 36.4414 39.1446 36.3485 39.2123 36.3091C39.28 36.2699 39.4171 36.2187 39.5748 36.3143L48.4377 41.7135C48.8713 41.9782 49.1396 42.4622 49.1387 42.976L49.1052 54.9269C49.1052 55.0507 49.0538 55.1301 48.9999 55.183L48.8756 55.2657C48.8011 55.2965 48.688 55.317 48.5602 55.2394L43.6558 52.2508ZM61.1004 47.0931L51.0515 53.8112L51.0815 42.9811C51.0823 42.7396 51.0515 42.5031 51.0035 42.2718L61.8769 35.8832L61.9077 45.6572C61.9094 46.2463 61.6 46.796 61.1004 47.0931Z" fill="#AAAAAA"/>
</g>
<defs>
<clipPath id="clip0">
<rect width="64" height="64" fill="white"/>
</clipPath>
</defs>
</svg>
