<svg width="64" height="64" viewBox="0 0 64 64" fill="none" xmlns="http://www.w3.org/2000/svg">
<path d="M47.8541 26.3231L41.1361 26.3222L5.07482 26.3195C3.3545 26.3195 1.95455 24.89 1.95455 23.1329C1.95455 21.3757 3.3545 19.9462 5.07572 19.9462L45.5837 19.9489V17.9548L5.07572 17.9521C2.27851 17.9521 0.0026926 20.2755 0.00179519 23.132L0 58.8147C0 60.3923 1.25637 61.6755 2.8017 61.6755L47.8532 61.6791C49.3985 61.6791 50.6549 60.3958 50.6549 58.8191L50.6567 38.0235L50.6576 29.1832C50.6558 27.6064 49.3994 26.3231 47.8541 26.3231ZM48.7013 58.8191C48.7013 59.2965 48.3199 59.6861 47.8523 59.6861L2.8008 59.6824C2.33325 59.6824 1.95186 59.293 1.95186 58.8156L1.95365 27.208C2.58363 27.7123 3.33117 28.0668 4.1478 28.222V28.3127H5.07393L41.1352 28.3154L47.8532 28.3163C48.3217 28.3163 48.7022 28.7057 48.7022 29.1832L48.7013 38.0235V58.8191Z" fill="#AAAAAA"/>
<path d="M47.6817 22.1572H6.50696V23.3534H47.6817V22.1572Z" fill="#AAAAAA"/>
<path d="M59.1445 8.37426C53.0143 2.11397 43.247 1.78372 36.7282 7.37635L37.3752 2.25486L35.4386 2L34.3483 10.6357L42.8054 11.7485L43.0549 9.77152L37.7845 9.07783C43.535 3.96352 52.2919 4.19595 57.7643 9.78409C63.4771 15.619 63.4762 25.1118 57.7625 30.9458L59.1427 32.3556C65.6183 25.7444 65.6192 14.9863 59.1445 8.37426Z" fill="#AAAAAA"/>
</svg>
