<svg width="110" height="121" viewBox="0 0 110 121" fill="none" xmlns="http://www.w3.org/2000/svg">
<g clip-path="url(#clip0)">
<path d="M90.4382 25.6543L98.6833 15.5904L94.9596 12.5072L86.6853 22.5712C78.0222 15.9762 67.5024 12.1738 56.562 11.6831V4.84775H65.6935V0H42.6432V4.84775H51.7747V11.6831C23.0012 12.9726 1.13985e-05 36.8623 1.13985e-05 66.0845C-0.00624284 75.7551 2.56132 85.2589 7.44708 93.6491L11.604 91.1958C7.15474 83.552 4.81808 74.8941 4.8268 66.0845C4.8268 38.7238 26.9808 16.4727 54.1981 16.4727C81.4152 16.4727 103.569 38.7722 103.569 66.0944C103.569 93.4162 81.3954 115.745 54.1784 115.745C44.0137 115.73 34.1079 112.588 25.848 106.757H36.2995V101.91H17.3962V121H22.223V110.063C31.4455 116.867 42.6527 120.56 54.1784 120.593C84.0552 120.593 108.356 96.1602 108.356 66.1329C108.383 58.5322 106.803 51.0091 103.719 44.0406C100.634 37.0724 96.1115 30.8112 90.4382 25.6543Z" fill="#AAAAAA"/>
<path d="M56.562 66.0851H56.5916V25.9165H51.7649V63.6613H21.3168V68.5089H56.562V66.0851Z" fill="#AAAAAA"/>
</g>
<defs>
<clipPath id="clip0">
<rect width="110" height="121" fill="white"/>
</clipPath>
</defs>
</svg>
