<svg width="97" height="121" viewBox="0 0 97 121" fill="none" xmlns="http://www.w3.org/2000/svg">
<g clip-path="url(#clip0)">
<path d="M85.6793 0H10.8123C7.92506 0.0329722 5.16863 1.16369 3.14476 3.14532C1.12088 5.12696 -0.00604822 7.79853 0.00999123 10.5768V19.9325H4.90653V10.6057C4.90634 9.09047 5.52566 7.63601 6.63073 6.55654C7.73575 5.47707 9.23778 4.85921 10.8123 4.83648H85.6793C87.2554 4.85671 88.76 5.47347 89.867 6.55321C90.9744 7.63294 91.5952 9.08884 91.5948 10.6057V89.9703H4.89652V74.8071H0V94.7782H96.4715V10.6153C96.4983 7.83199 95.3774 5.15199 93.3544 3.16231C91.3317 1.17263 88.5715 0.0355011 85.6793 0Z" fill="#AAAAAA"/>
<path d="M4.90649 27.7119H0.00994873V67.0673H4.90649V27.7119Z" fill="#AAAAAA"/>
<path d="M20.3753 116.193H16.8179V98.3467H11.9213V121.001H23.7729L32.3968 98.3467L27.1705 98.366L20.3753 116.193Z" fill="#AAAAAA"/>
<path d="M79.6634 116.193H76.1058L69.3108 98.3467H64.0844L72.7085 121.001H84.56V98.3467H79.6735L79.6634 116.193Z" fill="#AAAAAA"/>
<path d="M33.906 47.3939C33.965 50.11 34.8559 52.749 36.467 54.9795C38.0782 57.2105 40.3376 58.9339 42.9628 59.9341C45.5877 60.9346 48.4608 61.1668 51.2226 60.6022C53.9844 60.0377 56.511 58.7014 58.4867 56.7609C60.4624 54.8199 61.7987 52.3614 62.3279 49.6929C62.8576 47.0249 62.5565 44.2653 61.4631 41.761C60.3693 39.2563 58.5317 37.1182 56.1805 35.6145C53.8292 34.1107 51.0689 33.3082 48.2459 33.3076C44.4054 33.3533 40.74 34.8612 38.0525 37.5013C35.365 40.1415 33.8739 43.6985 33.906 47.3939ZM46.7769 36.2884V45.4708H49.7148V36.2884C52.5872 36.6474 55.2101 38.0448 57.0504 40.1971C58.8906 42.3494 59.811 45.0949 59.624 47.8761C59.4369 50.6575 58.1569 53.2662 56.0435 55.1724C53.9304 57.0785 51.1423 58.1391 48.2459 58.1391C45.349 58.1391 42.5613 57.0785 40.4478 55.1724C38.3347 53.2662 37.0547 50.6575 36.8677 47.8761C36.6807 45.0949 37.6008 42.3494 39.4414 40.1971C41.2816 38.0448 43.9045 36.6474 46.7769 36.2884Z" fill="#AAAAAA"/>
<path d="M49.7148 23.7017H46.7769V29.2016H49.7148V23.7017Z" fill="#AAAAAA"/>
<path d="M41.3806 24.6357L38.6224 25.6165L40.5309 30.7895L43.2892 29.7992L41.3806 24.6357Z" fill="#AAAAAA"/>
<path d="M31.6173 30.164L35.2248 34.3852L37.4732 32.5294L33.8757 28.3179L31.6173 30.164Z" fill="#AAAAAA"/>
<path d="M26.631 36.7892L31.4775 39.5393L32.9465 37.0488L28.0999 34.2988L26.631 36.7892Z" fill="#AAAAAA"/>
<path d="M24.2429 44.6927L29.7589 45.6542L30.2686 42.8081L24.7525 41.856L24.2429 44.6927Z" fill="#AAAAAA"/>
<path d="M24.2429 50.0866L24.7525 52.9229L30.2686 51.9711L29.7589 49.125L24.2429 50.0866Z" fill="#AAAAAA"/>
<path d="M32.9465 57.7311L31.4775 55.2407L26.631 57.9908L28.0899 60.4812L32.9465 57.7311Z" fill="#AAAAAA"/>
<path d="M37.4632 62.2498L35.2148 60.4038L31.6173 64.6154L33.8658 66.4712L37.4632 62.2498Z" fill="#AAAAAA"/>
<path d="M41.3806 70.1447L43.2892 64.9814L40.5313 63.9907L38.6125 69.1639L41.3806 70.1447Z" fill="#AAAAAA"/>
<path d="M49.7148 65.5864H46.7769V71.0863H49.7148V65.5864Z" fill="#AAAAAA"/>
<path d="M55.1108 70.1447L57.869 69.1639L55.9601 63.9907L53.2022 64.9814L55.1108 70.1447Z" fill="#AAAAAA"/>
<path d="M59.0179 62.2596L62.6255 66.4712L64.874 64.6154L61.2664 60.4038L59.0179 62.2596Z" fill="#AAAAAA"/>
<path d="M69.8606 57.9908L65.0141 55.2407L63.5451 57.7409L68.3916 60.4906L69.8606 57.9908Z" fill="#AAAAAA"/>
<path d="M72.2487 50.087L66.7325 49.1353L66.2227 51.9716L71.7389 52.9237L72.2487 50.087Z" fill="#AAAAAA"/>
<path d="M71.7389 41.856L66.2227 42.8175L66.7325 45.6542L72.2487 44.7021L71.7389 41.856Z" fill="#AAAAAA"/>
<path d="M63.5451 37.0488L65.0141 39.5487L69.8707 36.7988L68.4017 34.2988L63.5451 37.0488Z" fill="#AAAAAA"/>
<path d="M59.028 32.5294L61.2764 34.3852L64.8736 30.1736L62.6255 28.3179L59.028 32.5294Z" fill="#AAAAAA"/>
<path d="M55.1208 24.6357L53.2022 29.8088L55.9601 30.7895L57.8787 25.6261L55.1208 24.6357Z" fill="#AAAAAA"/>
</g>
<defs>
<clipPath id="clip0">
<rect width="97" height="121" fill="white"/>
</clipPath>
</defs>
</svg>
